#!OML:ASF X:\für Bonn\!DataBase\2005_08_11_Bastian_Final\c3d\Bastian.ASF
:FULLY-SPECIFIED
:DEGREES
32
root -21.5693 17.5915 -0.441665 143.844 -77.4342 -151.035
lowerback 4.81838 -1.46506 3.65471
upperback 4.91823 -2.13347 3.43076
thorax 2.38039 -1.11784 1.54177
lowerneck -11.0257 -0.0246023 1.01233
upperneck -2.76807 -0.325047 -0.00839945
head 0.975573 -0.243209 -0.187031
rclavicle -9.7156e-015 -1.63003e-014
rhumerus -22.1668 15.955 -79.8418
rradius 73.3187
rwrist -1.38065
rhand -5.96559 -3.05597
rfingers 7.12502
rthumb 19.8654 -32.0607
lclavicle -9.7156e-015 -1.63003e-014
lhumerus -25.1675 -8.26645 92.2727
lradius 22.2287
lwrist 13.1358
lhand -9.63917 -9.01053
lfingers 7.12502
lthumb 16.3311 20.3218
rfemur 0.697214 5.08405 25.7828
rtibia 27.6071
rfoot -12.223 -11.0641
rtoes -11.2929
lfemur 2.79968 4.4757 -12.819
ltibia 23.9256
lfoot -12.1786 -0.323507
ltoes -10.9188
33
root -21.5709 17.5928 -0.43395 144.381 -77.1769 -151.528
lowerback 4.78146 -1.35989 3.74908
upperback 4.89959 -1.98828 3.37808
thorax 2.37656 -1.04023 1.4299
lowerneck -11.0578 -0.0531573 1.0075
upperneck -2.68245 -0.360416 -0.021349
head 1.00852 -0.259709 -0.192018
rclavicle -1.95803e-014 -1.78906e-014
rhumerus -19.6691 17.0245 -79.0977
rradius 74.5529
rwrist -1.39649
rhand -5.61432 -3.21332
rfingers 7.12502
rthumb 20.2031 -32.1827
lclavicle -1.95803e-014 -1.78906e-014
lhumerus -25.2612 -8.77573 92.3239
lradius 22.8509
lwrist 13.4659
lhand -9.6771 -9.10483
lfingers 7.12502
lthumb 16.2946 20.2305
rfemur 0.62164 5.2046 25.7929
rtibia 27.6038
rfoot -12.1818 -10.9115
rtoes -11.3878
lfemur 2.81055 4.58947 -12.8089
ltibia 23.9062
lfoot -12.2143 -0.140751
ltoes -10.9223
34
root -21.5717 17.5946 -0.425209 144.889 -76.8933 -151.969
lowerback 4.75829 -1.25133 3.87423
upperback 4.84806 -1.8342 3.3307
thorax 2.33107 -0.957609 1.30694
lowerneck -11.0201 -0.0971354 0.996271
upperneck -2.61999 -0.413708 -0.0493646
head 1.0219 -0.28522 -0.201088
rclavicle 8.94531e-015 -1.31198e-014
rhumerus -17.0845 18.0732 -78.2523
rradius 75.7065
rwrist -1.47763
rhand -5.59399 -3.09123
rfingers 7.12502
rthumb 20.2226 -32.0586
lclavicle 8.94531e-015 -1.31198e-014
lhumerus -25.3751 -9.17523 92.3658
lradius 23.4099
lwrist 13.723
lhand -9.70885 -9.26533
lfingers 7.12502
lthumb 16.264 20.0725
rfemur 0.519454 5.36769 25.8214
rtibia 27.5974
rfoot -12.1219 -10.7618
rtoes -11.3996
lfemur 2.79266 4.67525 -12.7884
ltibia 23.8916
lfoot -12.265 0.0521871
ltoes -10.7611
35
root -21.572 17.5966 -0.416692 145.534 -76.6191 -152.555
lowerback 4.73628 -1.13071 3.96844
upperback 4.81302 -1.66478 3.25306
thorax 2.30284 -0.867294 1.1694
lowerneck -11.0337 -0.133045 1.0263
upperneck -2.53211 -0.462348 -0.0625672
head 1.05233 -0.308415 -0.212571
rclavicle -1.90336e-014 6.36111e-015
rhumerus -14.3724 19.0615 -77.3057
rradius 76.748
rwrist -1.64406
rhand -5.49164 -3.15835
rfingers 7.12502
rthumb 20.321 -32.1152
lclavicle -1.90336e-014 6.36111e-015
lhumerus -25.471 -9.65388 92.3777
lradius 23.9668
lwrist 14.0171
lhand -9.72084 -9.38009
lfingers 7.12502
lthumb 16.2525 19.9587
rfemur 0.421699 5.54863 25.8113
rtibia 27.5947
rfoot -12.0897 -10.602
rtoes -11.3727
lfemur 2.78195 4.75901 -12.8118
ltibia 23.8717
lfoot -12.2944 0.280292
ltoes -10.5874
